<?xml version="1.0" encoding="UTF-8" standalone="no"?>
<!DOCTYPE svg PUBLIC "-//W3C//DTD SVG 1.1//EN" "http://www.w3.org/Graphics/SVG/1.1/DTD/svg11.dtd">
<svg width="100%" height="100%" viewBox="0 0 16 16" version="1.1" xmlns="http://www.w3.org/2000/svg" xmlns:xlink="http://www.w3.org/1999/xlink" xml:space="preserve" xmlns:serif="http://www.serif.com/" style="fill-rule:evenodd;clip-rule:evenodd;stroke-linejoin:round;stroke-miterlimit:2;">
    <path d="M11.5,0C11.774,-0 12,0.226 12,0.5C12,0.774 11.774,1 11.5,1L11,1L11,6.358L15.497,13.718C15.596,13.88 15.657,14.05 15.689,14.221L15.702,14.284L15.71,14.367C15.714,14.402 15.716,14.438 15.717,14.474L15.714,14.564C15.713,14.595 15.712,14.627 15.709,14.659C15.705,14.694 15.699,14.73 15.692,14.765L15.676,14.844C15.668,14.877 15.659,14.909 15.648,14.94L15.62,15.026C15.577,15.14 15.52,15.248 15.45,15.348C15.344,15.503 15.21,15.637 15.055,15.742C15.028,15.761 15.001,15.779 14.973,15.796C14.943,15.813 14.911,15.83 14.878,15.845L14.805,15.88L14.715,15.913C14.682,15.926 14.647,15.938 14.612,15.947C14.585,15.954 14.559,15.959 14.532,15.964C14.497,15.972 14.461,15.979 14.424,15.985L14.418,15.987L14.216,16L1.783,16L1.569,15.985C0.834,15.877 0.284,15.24 0.284,14.498C0.284,14.223 0.36,13.952 0.503,13.717L5,6.359L5,1L4.5,1C4.499,1 4.498,1 4.497,1C4.223,1 3.998,0.775 3.998,0.501C3.998,0.368 4.051,0.24 4.146,0.146C4.24,0.052 4.367,-0 4.5,-0L11.5,0ZM12,12C11.726,12 11.5,12.226 11.5,12.5C11.5,12.774 11.726,13 12,13L13.885,13L13.275,12L12,12ZM11,10C10.726,10 10.5,10.226 10.5,10.5C10.5,10.774 10.726,11 11,11L12.664,11L12.052,10L11,10ZM10,8C9.726,8 9.5,8.226 9.5,8.5C9.5,8.774 9.726,9 10,9L11.441,9L10.831,8L10,8ZM9,6C8.726,6 8.5,6.226 8.5,6.5C8.5,6.774 8.726,7 9,7L10.22,7L10.073,6.76C10.025,6.682 10,6.592 10,6.5L10,6L9,6ZM9,4C8.726,4 8.5,4.226 8.5,4.5C8.5,4.774 8.726,5 9,5L10,5L10,4L9,4ZM9,2C8.726,2 8.5,2.226 8.5,2.5C8.5,2.774 8.726,3 9,3L10,3L10,2L9,2Z" style="fill-rule:nonzero;"/>
</svg>
