<?xml version="1.0" encoding="UTF-8" standalone="no"?>
<!DOCTYPE svg PUBLIC "-//W3C//DTD SVG 1.1//EN" "http://www.w3.org/Graphics/SVG/1.1/DTD/svg11.dtd">
<svg fill="#fff" width="100%" height="100%" viewBox="0 0 16 16" version="1.1" xmlns="http://www.w3.org/2000/svg" xmlns:xlink="http://www.w3.org/1999/xlink" xml:space="preserve" xmlns:serif="http://www.serif.com/" style="fill-rule:evenodd;clip-rule:evenodd;stroke-linejoin:round;stroke-miterlimit:2;">
    <path d="M2,6C2,2.708 4.708,-0 8,-0C11.292,-0 14,2.708 14,6C14,7.624 13.341,9.18 12.174,10.31C11.971,10.506 11.815,10.71 11.721,10.929L10.959,12.698C10.88,12.881 10.699,13 10.5,13L5.5,13C5.3,13 5.119,12.881 5.04,12.698L4.279,10.928C4.169,10.695 4.015,10.485 3.826,10.31C2.657,9.182 1.998,7.624 2,6M5,14.5C5,14.226 5.226,14 5.5,14L10.5,14C10.774,14 11,14.226 11,14.5C11,14.774 10.774,15 10.5,15L10.276,15.447C10.107,15.785 9.76,16 9.382,16L6.618,16C6.24,16 5.893,15.785 5.724,15.447L5.5,15C5.226,15 5,14.774 5,14.5" style="fill-rule:nonzero;"/>
</svg>
